<?xml version="1.0" standalone="no"?><!DOCTYPE svg PUBLIC "-//W3C//DTD SVG 1.1//EN" "http://www.w3.org/Graphics/SVG/1.1/DTD/svg11.dtd"><svg t="1611024027083" class="icon" viewBox="0 0 1099 1024" version="1.1" xmlns="http://www.w3.org/2000/svg" p-id="2132" xmlns:xlink="http://www.w3.org/1999/xlink" width="214.6484375" height="200"><defs><style type="text/css"></style></defs><path d="M1081.037424 433.090014L592.275244 14.828213C568.288428-4.930096 531.502324-4.930096 507.515508 14.847175L18.753329 433.090014c-17.900043 15.510842-23.607577 39.251153-14.411052 60.052367 9.177564 20.801215 31.400922 34.510675 56.241024 34.700294h48.978612v432.122957c0 35.231228 23.13353 63.996445 51.747051 63.996444H368.80914c28.632483 0 51.747051-28.765217 51.747051-63.996444V702.4629c0-35.231228 23.114568-63.996445 51.72809-63.996444h155.222191c28.632483 0 51.728089 28.765217 51.728089 63.996444v257.48377c0 35.231228 23.13353 63.996445 51.747051 63.996444h207.500176c28.632483 0 51.747051-28.765217 51.747051-63.996444V527.823713h48.978612c24.840101-0.189619 47.063459-13.89908 56.259986-34.700294 9.177564-20.801215 3.470029-44.541525-14.411051-60.052367z" p-id="2133"></path></svg>