<?xml version="1.0" standalone="no"?><!DOCTYPE svg PUBLIC "-//W3C//DTD SVG 1.1//EN" "http://www.w3.org/Graphics/SVG/1.1/DTD/svg11.dtd"><svg t="1611024066423" class="icon" viewBox="0 0 1024 1024" version="1.1" xmlns="http://www.w3.org/2000/svg" p-id="3422" xmlns:xlink="http://www.w3.org/1999/xlink" width="200" height="200"><defs><style type="text/css"></style></defs><path d="M389.806495 546.915207 215.222271 546.915207c-48.203862 0-87.277786 39.073924-87.277786 87.286995l0 174.575014c0 48.208978 39.073924 87.286995 87.277786 87.286995l174.583201 0c48.196699 0 87.269599-39.078017 87.269599-87.286995L477.075071 634.202203C477.076094 585.989131 438.002171 546.915207 389.806495 546.915207zM673.028998 456.626855c26.644847 26.646893 69.845765 26.646893 96.474238 0l106.108666-106.107643c26.647917-26.630521 26.647917-69.814042 0-96.459912L769.50426 147.94961c-26.628474-26.628474-69.829392-26.628474-96.474238 0L566.936705 254.058276c-26.644847 26.646893-26.644847 69.829392 0 96.459912L673.028998 456.626855zM606.643032 284.881282l97.226369-97.207949c9.752108-9.768481 25.588795-9.768481 35.340903 0l97.209996 97.207949c9.768481 9.769504 9.768481 25.590841 0 35.359322l-97.209996 97.207949c-9.752108 9.752108-25.588795 9.752108-35.340903 0l-97.226369-97.207949C596.890924 310.472124 596.890924 294.65181 606.643032 284.881282zM389.806495 127.936811 215.222271 127.936811c-48.203862 0-87.277786 39.073924-87.277786 87.286995l0 174.575014c0 48.211025 39.073924 87.286995 87.277786 87.286995l174.583201 0c48.196699 0 87.269599-39.07597 87.269599-87.286995L477.075071 215.223806C477.076094 167.009711 438.002171 127.936811 389.806495 127.936811zM808.782845 546.915207 634.193505 546.915207c-48.197722 0-87.270623 39.073924-87.270623 87.286995l0 174.575014c0 48.208978 39.073924 87.286995 87.270623 87.286995l174.58934 0c48.197722 0 87.270623-39.078017 87.270623-87.286995L896.053468 634.202203C896.053468 585.989131 856.980567 546.915207 808.782845 546.915207z" p-id="3423"></path></svg>