<?xml version="1.0" standalone="no"?><!DOCTYPE svg PUBLIC "-//W3C//DTD SVG 1.1//EN" "http://www.w3.org/Graphics/SVG/1.1/DTD/svg11.dtd"><svg t="1611024031740" class="icon" viewBox="0 0 1024 1024" version="1.1" xmlns="http://www.w3.org/2000/svg" p-id="2277" xmlns:xlink="http://www.w3.org/1999/xlink" width="200" height="200"><defs><style type="text/css"></style></defs><path d="M138.4 592.8c14.5 2 169.7 2.3 340.4 1.8v-50.1c0-20 16.2-36.1 36.1-36.1 19.9 0 36.1 16.2 36.1 36.1v49.9c124.1-0.5 247.2-1.2 322.8-1.7h1.5l1.4 0.3c3 0.7 11.1-3.3 16.4-7.6 4.2-3.3 7.2-5 7.2-14.5V326.1c-34.6-12-81.5-11.9-133.1-11.9h-30c-3.5-13.3-12-22.7-22-22.7H697v-36.1c0-41-7.5-67.6-23.6-83.7-18.6-18.7-44.1-18.7-66.6-18.7h-189c-23.2 0-48.7 0-67.4 18.7-16.1 16.1-23.5 42.6-23.5 83.7v26.5h-12.3c-12.2 0-22.2 14.2-23.5 32.3h-34.4c-56.1 0-106.6-0.2-141.8 15.2v246.1c0.2 2.4 1.9 14.2 23.5 17.3z m228-337.4c0-36.2 6.5-50.2 12-55.7 6.7-6.8 19.1-7.1 38.6-7.1h189.1c20.3 0 32.6 0.3 39.4 7.1 5.4 5.5 12 19.5 12 55.7v36.1h-5.6c-10 0-18.5 9.4-22 22.7H401.4c-1.3-18.1-11.2-32.3-23.5-32.3h-11.5v-26.5z m558.1 82.5c22.3 15.3 35.5 40.5 35.5 82v340.9c0 106.4-86.3 110.1-192.7 110.1H256.7C150.3 870.9 64 867.3 64 760.8V419.9c0-35.9 9.8-59.5 26.9-75.2v231.1c0 12 9.2 35.9 44.1 40.8 16.2 2.3 176.6 2.5 343.8 2v22.2c0 19.9 16.2 36.1 36.1 36.1 19.9 0 36.1-16.2 36.1-36.1v-22.4c158.4-0.6 305.1-1.6 321.9-1.7 5.2 1 22.1 3.4 35.9-7.4 10.4-8.1 15.6-21 15.6-38.4v-233h0.1z" p-id="2278"></path></svg>