<?xml version="1.0" standalone="no"?><!DOCTYPE svg PUBLIC "-//W3C//DTD SVG 1.1//EN" "http://www.w3.org/Graphics/SVG/1.1/DTD/svg11.dtd"><svg t="1611024000144" class="icon" viewBox="0 0 1039 1024" version="1.1" xmlns="http://www.w3.org/2000/svg" p-id="1253" xmlns:xlink="http://www.w3.org/1999/xlink" width="202.9296875" height="200"><defs><style type="text/css"></style></defs><path d="M458.675699 358.801016c-14.631668-1.842506-27.691787 4.76884-37.988146 14.523285a53.324301 53.324301 0 0 0-16.69094 37.771381v200.724809c0.37934 29.100762 24.115157 52.565622 53.161727 52.565622h0.650297a53.432684 53.432684 0 0 0 52.674005-53.595258l-0.054192-201.591871a53.378493 53.378493 0 0 0-51.752751-50.397968zM591.986452 229.933954c-14.523285-1.679932-27.745978 4.714649-37.988145 14.523286a53.324301 53.324301 0 0 0-16.69094 37.77138v459.434377l0.054191 1.138019a53.541067 53.541067 0 0 0 51.644369 50.506351l1.463167 0.054191a53.541067 53.541067 0 0 0 53.215919-52.348857l-0.054192-460.572396a53.27011 53.27011 0 0 0-51.644369-50.506351zM326.557155 231.180356c-29.80525-3.359865-53.866215 22.27265-54.787468 52.240474v459.488569l0.054191 1.138018a53.432684 53.432684 0 0 0 53.215919 50.506351 52.999153 52.999153 0 0 0 36.470787-14.523285c10.296359-9.808637 16.257409-22.977138 16.69094-37.771381l-0.054191-460.626587a53.432684 53.432684 0 0 0-51.590178-50.452159z" p-id="1254"></path><path d="M976.474174 62.42845a136.34547 136.34547 0 0 0-96.839966-39.993226H168.426757c-36.633362 0-71.044877 14.198137-97.00254 39.993226a136.887384 136.887384 0 0 0-40.643523 97.219306v712.182896c0.162574 36.795936 14.577477 71.261643 40.643523 97.165114a136.453853 136.453853 0 0 0 96.894157 39.939035h0.596105l710.123624 0.162574h0.596105a136.562235 136.562235 0 0 0 96.839966-39.939035 136.941575 136.941575 0 0 0 40.697714-97.219305V159.593565a136.34547 136.34547 0 0 0-40.697714-97.165115z m-65.679932 97.219306v712.020322a31.268417 31.268417 0 0 1-9.320914 22.218459c-5.906859 5.852667-14.30652 7.532599-22.326842 9.049957H168.697714c-7.532599-1.842506-16.3116-3.19729-22.27265-9.104149a31.268417 31.268417 0 0 1-9.266724-22.110076V159.701948c0.054191-17.341236 14.685859-33.056732 31.647757-31.322608h710.39458c6.882303-1.842506 16.3116 3.19729 22.272651 9.104149s9.320914 13.818798 9.320914 22.164267z" p-id="1255"></path><path d="M725.351397 358.801016c-14.414903-1.842506-27.745978 4.76884-37.988146 14.523285a53.324301 53.324301 0 0 0-16.690939 37.771381v200.508044l0.054191 1.083827a53.432684 53.432684 0 0 0 53.215919 50.50635 52.782388 52.782388 0 0 0 36.470787-14.577476 53.812024 53.812024 0 0 0 16.69094-37.77138l-0.054191-201.591872a53.324301 53.324301 0 0 0-51.698561-50.452159z" p-id="1256"></path></svg>