<?xml version="1.0" standalone="no"?><!DOCTYPE svg PUBLIC "-//W3C//DTD SVG 1.1//EN" "http://www.w3.org/Graphics/SVG/1.1/DTD/svg11.dtd"><svg t="1611032446303" class="icon" viewBox="0 0 1024 1024" version="1.1" xmlns="http://www.w3.org/2000/svg" p-id="5894" width="128" height="128" xmlns:xlink="http://www.w3.org/1999/xlink"><defs><style type="text/css"></style></defs><path d="M161.731765 584.704h28.431059c56.018824 0 101.496471 45.417412 101.49647 101.496471v202.992941c0 56.018824-45.477647 101.436235-101.49647 101.436235h-28.431059c-56.018824 0-101.496471-45.417412-101.496471-101.436235v-202.992941c0-56.018824 45.477647-101.496471 101.496471-101.496471zM490.797176 501.157647h28.370824c56.018824 0 101.496471 45.477647 101.496471 101.496471v304.489411c0 56.018824-45.417412 101.496471-101.496471 101.496471h-28.310588c-56.079059 0-101.556706-45.477647-101.556706-101.496471v-304.489411c0-56.018824 45.417412-101.436235 101.49647-101.496471z m329.065412-208.775529h28.370824c56.018824 0 101.496471 45.417412 101.49647 101.436235v507.482353c0 56.018824-45.417412 101.496471-101.49647 101.49647h-28.370824c-56.018824 0-101.496471-45.477647-101.49647-101.49647V393.818353c0-56.018824 45.417412-101.436235 101.49647-101.436235z m-38.490353-201.908706L720.534588 20.540235 963.764706 0l-54.211765 238.049882-62.223059-71.559529-309.127529 253.168941a48.911059 48.911059 0 0 1-74.270118-12.890353L394.059294 287.322353l-253.289412 200.583529a48.790588 48.790588 0 0 1-69.632-7.951058 51.561412 51.561412 0 0 1 7.710118-71.378824l297.502118-236.724706a48.911059 48.911059 0 0 1 73.487058 13.552941l69.330824 118.302118 262.204235-213.232941z" p-id="5895"></path></svg>