<?xml version="1.0" standalone="no"?><!DOCTYPE svg PUBLIC "-//W3C//DTD SVG 1.1//EN" "http://www.w3.org/Graphics/SVG/1.1/DTD/svg11.dtd"><svg t="1611032539805" class="icon" viewBox="0 0 1025 1024" version="1.1" xmlns="http://www.w3.org/2000/svg" p-id="9390" xmlns:xlink="http://www.w3.org/1999/xlink" width="128.125" height="128"><defs><style type="text/css"></style></defs><path d="M480.768 592.896l-224.768-130.048c-6.656-3.584-14.336-3.584-20.992 0l-224.768 130.048c-6.656 3.584-10.24 10.752-10.24 17.92V870.4c0 7.168 4.096 14.336 10.24 17.92l224.768 130.048c6.656 3.584 14.336 3.584 20.992 0l224.768-130.048c6.656-3.584 10.24-10.752 10.24-17.92v-259.072c0-8.192-4.096-14.848-10.24-18.432zM1014.784 592.896l-224.768-130.048c-6.656-3.584-14.336-3.584-20.992 0l-224.768 130.048c-6.656 3.584-10.24 10.752-10.24 17.92V870.4c0 7.168 4.096 14.336 10.24 17.92l224.768 130.048c6.656 3.584 14.336 3.584 20.992 0l224.768-130.048c6.656-3.584 10.24-10.752 10.24-17.92v-259.072c0-8.192-4.608-14.848-10.24-18.432zM754.176 412.672v-260.096c0-7.168-4.096-14.336-10.24-17.92l-224.768-129.024c-6.144-3.584-14.336-3.584-20.48 0l-224.768 129.024c-6.656 3.584-10.24 10.752-10.24 17.92v260.096c0 7.168 4.096 14.336 10.24 17.92l224.768 130.048c6.656 3.584 14.336 3.584 20.992 0l224.768-130.048c5.632-4.096 9.728-10.752 9.728-17.92z" p-id="9391"></path></svg>