<?xml version="1.0" standalone="no"?><!DOCTYPE svg PUBLIC "-//W3C//DTD SVG 1.1//EN" "http://www.w3.org/Graphics/SVG/1.1/DTD/svg11.dtd"><svg t="1611024049880" class="icon" viewBox="0 0 1024 1024" version="1.1" xmlns="http://www.w3.org/2000/svg" p-id="2856" xmlns:xlink="http://www.w3.org/1999/xlink" width="200" height="200"><defs><style type="text/css"></style></defs><path d="M325.457219 689.318565c4.01107 0.205536 8.034597 0.392387 12.076809 0.554325l17.308639 0.716263 1.040137-17.296182a236.678041 236.678041 0 0 1 33.726621-108.242834c1.501037-2.485119 3.089271-4.907955 4.677506-7.330791l17.856735-27.267801-32.586829-0.062284a939.642964 939.642964 0 0 1-18.815904-0.211765c-315.18041-7.006916-330.240607-108.242833-330.240608-108.242833v146.977063c0.006228 72.535591 148.147997 112.739716 294.956894 120.406839z" p-id="2857"></path><path d="M362.067575 743.355899l-3.151555-13.042206-13.403451-0.460899c-303.838549-13.608987-315.006015-108.02484-315.006015-108.024841v147.163915c0 80.022091 176.686386 121.889191 351.217755 121.889191 11.958469 0 24.159845-0.205536 36.267796-0.61038l42.17229-1.401384-30.593751-29.049115c-33.440116-31.739771-56.777816-72.012408-67.503069-116.464281zM489.338078 727.859716v-0.006229zM727.741377 643.907523zM803.372467 592.124859a218.72788 218.72788 0 0 0-8.881654-16.46158 219.674592 219.674592 0 0 0-56.055326-62.918989 219.363174 219.363174 0 0 0-54.629029-30.425585 221.01992 221.01992 0 0 0-78.452542-14.468502 218.5348 218.5348 0 0 0-125.183998 39.157759 220.48428 220.48428 0 0 0-57.886466 58.988887 218.148641 218.148641 0 0 0-30.749461 70.660852 219.973554 219.973554 0 0 0-5.381311 35.140461 218.846219 218.846219 0 0 0-0.635293 15.88857c0 2.553631 0.093426 5.088578 0.199307 8.053282a220.260059 220.260059 0 0 0 9.747399 57.487851 221.25037 221.25037 0 0 0 107.526571 128.99576 220.303657 220.303657 0 0 0 102.357024 25.293409 219.817845 219.817845 0 0 0 176.867008-89.302362s7.735635-11.074041 10.955702-16.330785a219.319575 219.319575 0 0 0 32.007591-114.197155c0-5.088578-0.224221-10.54463-0.685121-16.673345a217.868365 217.868365 0 0 0-21.120401-78.888528z m-44.23388 122.873274l-74.478842 60.203419-56.945982 46.027651 17.869192-50.786125 14.711408-41.817273h-220.907809v-0.772318-27.840811h338.293889l-18.541856 14.985457z m18.548085-71.09061v27.840812H439.399011l18.541856-14.985457 74.478842-60.20342 56.945983-46.02765-17.869192 50.786125-14.711409 41.817272h220.907809l-0.006228 0.772318zM659.945575 116.489195c-65.566046 0-126.660122 5.935636-178.224793 16.143933 147.892634 13.297569 286.523682 58.116916 286.523682 152.800589v83.391639c0 9.710028-1.687888 21.705868-7.212452 34.642191 134.800601-13.384766 232.473891-52.804117 232.473891-99.348721v-83.39164c0-57.562591-149.331387-104.237992-333.560328-104.237991zM752.218869 479.279261c2.541175 1.79377 5.138405 3.500344 7.617296 5.387539a254.740312 254.740312 0 0 1 65.017949 72.977806 251.657269 251.657269 0 0 1 10.301723 19.102409c2.360552 4.876813 4.496883 9.840824 6.527331 14.835976 91.37018-18.597911 151.822735-50.779896 151.822735-87.390252v-125.084345c0 47.559829-101.964637 87.658072-241.287034 100.170867zM859.159973 662.804396c0.180623 1.856054 0.404844 3.699651 0.548097 5.561934 0.529411 7.013144 0.784775 13.334939 0.784774 19.320402 0 36.280252-7.804147 71.937668-22.590296 104.74249 93.481598-18.473344 155.603355-51.03526 155.603355-88.143885v-125.084344c0 34.22489-52.804117 64.600648-134.34593 83.603403z" p-id="2858"></path><path d="M325.463448 489.232195a1063.369524 1063.369524 0 0 0 132.925862-1.295501c1.887196-1.388926 3.755707-2.802766 5.680273-4.141865a246.643432 246.643432 0 0 1 141.284333-44.19651c18.193067 0 36.498245 2.086504 54.442178 6.11003 18.585455-8.084424 33.820046-16.978535 45.373672-26.557767 18.423517-15.27819 27.7723-32.213127 27.772299-50.337682v-83.39164c0-80.02832-176.686386-121.895419-351.217756-121.895419-11.472657 0-23.082337 0.180623-34.505166 0.541868-152.532769 4.81453-316.712589 44.850489-316.712589 121.347323v83.391639c0 72.560505 148.141768 112.76463 294.956894 120.425524z" p-id="2859"></path></svg>