<?xml version="1.0" standalone="no"?><!DOCTYPE svg PUBLIC "-//W3C//DTD SVG 1.1//EN" "http://www.w3.org/Graphics/SVG/1.1/DTD/svg11.dtd"><svg t="1611024014167" class="icon" viewBox="0 0 1024 1024" version="1.1" xmlns="http://www.w3.org/2000/svg" p-id="1687" xmlns:xlink="http://www.w3.org/1999/xlink" width="200" height="200"><defs><style type="text/css"></style></defs><path d="M608.434932 325.919075H302.562725c-25.605999 0-46.562725 20.616779-46.562725 45.812842s20.956726 45.812842 46.562725 45.812842h305.882205c25.605999 0 46.562725-20.616779 46.562725-45.812842s-20.956726-45.812842-46.572723-45.812842zM488.813623 746.223403H302.562725c-25.605999 0-46.562725 20.616779-46.562725 45.812841s20.956726 45.812842 46.562725 45.812842h186.260896c25.605999 0 46.562725-20.616779 46.562725-45.812842s-20.956726-45.812842-46.572723-45.812841zM675.07452 536.636151H302.562725c-25.605999 0-46.562725 20.616779-46.562725 45.812841s20.956726 45.812842 46.562725 45.812842H675.07452c25.605999 0 46.562725-20.616779 46.562724-45.812842s-20.956726-45.812842-46.562724-45.812841z m231.693797 350.285268c0 21.306671-20.806749 42.133417-41.843462 42.133416H159.275113c-21.156694 0-41.843462-20.836744-41.843462-42.133416v-671.595064c0-21.306671 20.686768-42.133417 41.843462-42.133416h97.504765v35.274488c0 26.035932 21.156694 47.342603 47.012654 47.342603 25.85596 0 47.012654-21.306671 47.012655-47.342603v-35.274488H674.874551v35.274488c0 26.035932 21.156694 47.342603 47.012654 47.342603 25.85596 0 47.012654-21.306671 47.012654-47.342603v-35.274488h96.024996c21.156694 0 41.843462 20.946727 41.843462 42.133416v671.595064zM855.516326 78.267771h-86.616467V47.492579c0-26.035932-21.156694-47.342603-47.012654-47.342602-25.85596 0-47.012654 21.306671-47.012654 47.342602v30.775192H350.805187V47.492579c0-26.035932-21.156694-47.342603-47.012655-47.342602-25.85596 0-47.012654 21.306671-47.012654 47.342602v30.775192h-88.106233C89.815966 78.267771 23.176379 145.377285 23.176379 224.804874V877.462896c0 79.417591 66.639588 146.537104 145.497266 146.537104h686.842681c78.857678 0 145.497266-67.109514 145.497266-146.537104V224.804874c0.009998-79.427589-66.629589-146.537104-145.497266-146.537103z" p-id="1688"></path></svg>