<?xml version="1.0" standalone="no"?><!DOCTYPE svg PUBLIC "-//W3C//DTD SVG 1.1//EN" "http://www.w3.org/Graphics/SVG/1.1/DTD/svg11.dtd"><svg t="1611024009721" class="icon" viewBox="0 0 1024 1024" version="1.1" xmlns="http://www.w3.org/2000/svg" p-id="1540" xmlns:xlink="http://www.w3.org/1999/xlink" width="200" height="200"><defs><style type="text/css"></style></defs><path d="M871.04 626.112v-49.984a42.752 42.752 0 0 0-42.688-42.688h-256V384.064h85.312c23.488 0 42.688-19.2 42.688-42.752V170.688c0-23.488-19.2-42.688-42.688-42.688h-256c-23.488 0-42.688 19.2-42.688 42.688v170.688c0 23.552 19.2 42.752 42.688 42.752h85.312v149.248h-256a42.752 42.752 0 0 0-42.688 42.688v50.048l-47.808 47.808a42.752 42.752 0 0 0 0 60.288l60.288 60.288c16.64 16.64 43.712 16.64 60.288 0l60.288-60.288a42.752 42.752 0 0 0 0-60.288l-47.68-47.936v-7.296h213.312V704c0 2.176 0.896 4.032 1.152 6.08l-48.96 49.152a42.752 42.752 0 0 0 0 60.288l60.288 60.288c16.64 16.64 43.712 16.64 60.288 0l60.288-60.288a42.752 42.752 0 0 0 0-60.288l-49.088-49.152c0.32-2.112 1.216-3.84 1.216-6.08V618.688h213.504v7.296l-47.808 47.808a42.752 42.752 0 0 0 0 60.288l60.288 60.288c16.64 16.64 43.712 16.64 60.288 0l60.288-60.288a42.496 42.496 0 0 0 0.128-60.16l-47.808-47.808z" p-id="1541"></path></svg>