<?xml version="1.0" standalone="no"?><!DOCTYPE svg PUBLIC "-//W3C//DTD SVG 1.1//EN" "http://www.w3.org/Graphics/SVG/1.1/DTD/svg11.dtd"><svg t="1611024018292" class="icon" viewBox="0 0 1024 1024" version="1.1" xmlns="http://www.w3.org/2000/svg" p-id="1838" xmlns:xlink="http://www.w3.org/1999/xlink" width="200" height="200"><defs><style type="text/css"></style></defs><path d="M707.490909 875.054545h-390.981818c-18.618182 0-37.236364 18.618182-37.236364 37.236364s18.618182 37.236364 37.236364 37.236364h390.981818c18.618182 0 37.236364-13.963636 37.236364-37.236364 0-18.618182-18.618182-37.236364-37.236364-37.236364zM884.363636 74.472727h-744.727272c-51.2 0-93.090909 41.890909-93.090909 93.090909v558.545455c0 51.2 41.890909 93.090909 93.090909 93.090909h744.727272c51.2 0 93.090909-41.890909 93.090909-93.090909v-558.545455c0-51.2-41.890909-93.090909-93.090909-93.090909z m18.618182 651.636364c0 9.309091-9.309091 18.618182-18.618182 18.618182h-744.727272c-9.309091 0-18.618182-9.309091-18.618182-18.618182v-558.545455c0-9.309091 9.309091-18.618182 18.618182-18.618181h744.727272c9.309091 0 18.618182 9.309091 18.618182 18.618181v558.545455z" p-id="1839"></path><path d="M623.709091 404.945455c9.309091-65.163636-18.618182-130.327273-69.818182-167.563637-51.2-41.890909-125.672727-51.2-181.527273-27.927273-9.309091 0-13.963636 9.309091-13.963636 13.963637l-4.654545 4.654545-4.654546 4.654546c0 9.309091 0 18.618182 9.309091 27.927272l74.472727 74.472728c0 4.654545 4.654545 4.654545 4.654546 4.654545s0 4.654545-4.654546 9.309091l-23.272727 23.272727c-4.654545 4.654545-4.654545 4.654545-13.963636 4.654546l-4.654546-4.654546-69.818182-69.818181c-9.309091-9.309091-18.618182-9.309091-27.927272-9.309091-18.618182 0-23.272727 9.309091-27.927273 23.272727-27.927273 60.509091-13.963636 134.981818 27.927273 181.527273 37.236364 51.2 102.4 79.127273 167.563636 69.818181l97.745455 97.745455c23.272727 23.272727 51.2 32.581818 83.781818 32.581818h4.654545c27.927273 0 55.854545-13.963636 74.472727-32.581818 23.272727-23.272727 37.236364-55.854545 32.581819-83.781818 0-27.927273-13.963636-55.854545-32.581819-74.472727l-97.745454-102.4z m46.545454 209.454545c-18.618182 18.618182-46.545455 18.618182-65.163636 0l-125.672727-125.672727-13.963637 9.309091c-37.236364 9.309091-79.127273 0-107.054545-23.272728-23.272727-18.618182-37.236364-46.545455-37.236364-74.472727l23.272728 23.272727c13.963636 13.963636 32.581818 23.272727 55.854545 23.272728s41.890909-9.309091 55.854546-23.272728l23.272727-23.272727c13.963636-13.963636 23.272727-32.581818 23.272727-55.854545s-9.309091-41.890909-23.272727-55.854546l-18.618182-23.272727c27.927273 4.654545 55.854545 18.618182 74.472727 41.890909 23.272727 27.927273 32.581818 65.163636 27.927273 107.054545l-4.654545 18.618182 130.327272 125.672728c4.654545 4.654545 9.309091 9.309091 9.309091 18.618181-9.309091 13.963636-18.618182 27.927273-27.927273 37.236364z" p-id="1840"></path></svg>